first trial
nRows=29
nColumns=38

# SIMM Motion File Header:
name Sujet_08_velo_80.mvnx
datacolumns 38
datarows 29
otherdata 1
range 11.7500 12.2160
endheader
time pelvis_tilt  pelvis_list  pelvis_rotation  pelvis_tx  pelvis_ty  pelvis_tz  hip_flexion_r  hip_adduction_r  hip_rotation_r  knee_angle_r  ankle_angle_r  subtalar_angle_r  mtp_angle_r  hip_flexion_l  hip_adduction_l  hip_rotation_l  knee_angle_l  ankle_angle_l  subtalar_angle_l  mtp_angle_l  lumbar_extension  lumbar_bending  lumbar_rotation  arm_flex_r  arm_add_r  arm_rot_r  elbow_flex_r  pro_sup_r  wrist_flex_r  wrist_dev_r  arm_flex_l  arm_add_l  arm_rot_l  elbow_flex_l  pro_sup_l  wrist_flex_l  wrist_dev_l
11.7500	-23.6411	3.7274	43.4771	0.0000	1.2500	-0.0000	92.4961	3.0772	0.7781	107.1440	-4.5659	8.2295	0.0000	52.7153	-0.3382	-15.9472	34.6460	-16.1531	3.3362	-0.0000	-13.8109	-1.1501	0.8712	89.7343	-8.1163	29.6831	-5.6821	83.9606	-29.3089	-20.4135	90.4915	-3.0511	27.8275	-6.3507	60.0006	-24.7448	-20.5258	
11.7660	-23.7019	3.4596	43.3144	0.0000	1.2500	-0.0000	94.4691	3.7515	1.3264	106.6857	-3.6403	7.7937	0.0000	51.7136	-0.6692	-16.4700	35.4282	-16.3791	3.2711	-0.0000	-13.8260	-1.0124	1.0063	89.8459	-7.9964	29.7635	-5.5813	84.0106	-29.3568	-20.2775	90.4911	-3.0800	27.7155	-6.2848	59.8394	-24.6894	-20.5344	
11.7830	-23.7593	3.1081	43.2652	0.0000	1.2500	-0.0000	96.0957	4.2802	2.1876	105.4218	-3.0588	7.2380	-0.0000	51.3718	-1.0284	-16.9386	37.2727	-16.3918	3.1654	-0.0000	-13.8610	-0.8241	1.1267	90.0025	-7.9586	29.8520	-5.4876	83.9920	-29.4142	-20.1526	90.5233	-3.0487	27.6352	-6.1618	59.7183	-24.6264	-20.5069	
11.8000	-23.7948	2.8075	43.2268	0.0000	1.2500	-0.0000	97.1209	4.7034	2.9164	103.5086	-2.8192	6.9137	-0.0000	51.5388	-1.3936	-17.1443	39.9243	-16.3015	3.1888	-0.0000	-13.9028	-0.6716	1.2255	90.1647	-7.9384	29.9539	-5.4503	83.9233	-29.4588	-20.0586	90.5560	-3.0115	27.6436	-6.0719	59.5580	-24.5844	-20.4771	
11.8160	-23.8020	2.5851	43.1543	0.0000	1.2500	-0.0000	97.4596	5.0456	3.4861	100.9079	-3.0281	6.9947	0.0000	52.2451	-1.7818	-17.0116	43.4846	-16.1059	3.4528	0.0000	-13.9523	-0.5783	1.3018	90.3440	-7.9235	30.0655	-5.5194	83.8048	-29.4794	-20.0109	90.5642	-2.9806	27.8280	-6.0460	59.2619	-24.5848	-20.4591	
11.8330	-23.7873	2.4140	43.0935	0.0000	1.2500	-0.0000	97.1995	5.2675	3.9392	97.6512	-3.5843	7.2932	0.0000	53.4625	-2.1674	-16.6007	47.8724	-15.7932	3.8220	0.0000	-14.0084	-0.5207	1.3562	90.5291	-7.9266	30.1904	-5.6456	83.6360	-29.4869	-19.9943	90.5725	-2.9437	28.1010	-6.0539	58.9265	-24.6063	-20.4387	
11.8500	-23.7522	2.3472	43.0780	0.0000	1.2500	-0.0000	96.3524	5.3055	3.9257	93.9843	-4.1831	7.6296	-0.0000	54.9505	-2.4577	-15.9158	52.5571	-15.4707	4.1213	0.0000	-14.0552	-0.5143	1.3832	90.6458	-7.9203	30.3451	-5.7288	83.4345	-29.4915	-19.9823	90.6229	-2.9184	28.2578	-6.0938	58.7626	-24.6132	-20.4073	
11.8660	-23.6923	2.4450	43.1123	0.0000	1.2500	-0.0000	94.8663	5.1610	3.1729	89.9371	-4.6592	8.0237	0.0000	56.6394	-2.5760	-14.9253	57.4270	-15.2081	4.2730	0.0000	-14.0879	-0.5873	1.3744	90.6592	-7.8806	30.5878	-5.7182	83.1634	-29.4899	-19.9661	90.7641	-2.9210	28.1624	-6.2003	58.9085	-24.5961	-20.3612	
11.8830	-23.6119	2.6469	43.1919	0.0000	1.2500	-0.0000	92.7910	4.8698	1.9395	85.4608	-5.1858	8.4721	-0.0000	58.5996	-2.5686	-13.6766	62.5703	-14.9488	4.3695	-0.0000	-14.1114	-0.7114	1.3380	90.6045	-7.8315	30.8603	-5.6643	82.8593	-29.4854	-19.9548	90.9485	-2.9355	27.9513	-6.3363	59.2262	-24.5644	-20.3040	
11.9000	-23.5239	2.8242	43.3369	0.0000	1.2500	-0.0000	90.2927	4.4205	0.6611	80.6900	-5.9618	8.7799	-0.0000	60.8000	-2.5283	-12.2961	67.7578	-14.6186	4.5156	-0.0000	-14.1243	-0.8178	1.2935	90.5119	-7.8178	31.0050	-5.6197	82.6491	-29.4982	-19.9487	91.0736	-2.9306	27.8279	-6.3938	59.5111	-24.5118	-20.2381	
11.9160	-23.4254	2.9359	43.5381	0.0000	1.2500	-0.0000	87.3552	3.7867	-0.5992	75.5724	-7.1070	8.8365	0.0000	63.2613	-2.4662	-10.7621	73.0399	-14.1616	4.8422	0.0000	-14.1237	-0.8841	1.2540	90.3724	-7.8434	30.9101	-5.5970	82.6379	-29.5455	-19.9313	91.0721	-2.9081	27.8992	-6.3026	59.6545	-24.4191	-20.1589	
11.9330	-23.3190	3.0226	43.8048	0.0000	1.2500	-0.0000	83.9882	3.0354	-1.9520	70.1688	-8.4833	8.7473	0.0000	65.9630	-2.3249	-9.1049	78.3615	-13.6315	5.2367	0.0000	-14.1125	-0.9327	1.2064	90.1945	-7.9047	30.6872	-5.5833	82.7208	-29.6101	-19.9192	91.0103	-2.8661	28.0575	-6.1349	59.7644	-24.3058	-20.0717	
11.9500	-23.2266	3.0791	44.1864	0.0000	1.2500	-0.0000	80.4031	2.2624	-3.2221	64.8066	-9.9118	8.6450	0.0000	68.8142	-2.1082	-7.5223	83.3536	-13.1202	5.4399	0.0000	-14.0973	-0.9619	1.1304	90.0332	-8.0352	30.5127	-5.5948	82.7107	-29.6608	-19.9635	90.9844	-2.7666	28.1823	-5.9981	59.9617	-24.2234	-19.9921	
11.9660	-23.1564	3.0899	44.7283	0.0000	1.2500	-0.0000	76.5838	1.4703	-4.3742	59.4896	-11.4197	8.5889	-0.0000	71.8287	-1.8385	-6.0430	87.9789	-12.7055	5.2787	0.0000	-14.0848	-0.9674	1.0131	89.9209	-8.2603	30.4878	-5.6392	82.4986	-29.6831	-20.0952	91.0709	-2.5884	28.2117	-5.9322	60.3290	-24.2019	-19.9259	
11.9830	-23.1005	3.0703	45.3853	0.0000	1.2500	-0.0000	72.5457	0.6783	-5.4849	54.2293	-12.9906	8.5185	0.0000	74.9934	-1.4765	-4.6633	92.2877	-12.3154	4.9324	-0.0000	-14.0690	-0.9535	0.8671	89.8237	-8.5543	30.5102	-5.7093	82.1939	-29.6912	-20.2833	91.1919	-2.3518	28.2074	-5.8975	60.7842	-24.2109	-19.8666	
12.0000	-23.0563	3.0613	46.0702	0.0000	1.2500	-0.0000	68.5548	-0.0350	-6.5173	49.3574	-14.3957	8.4142	0.0000	78.1745	-0.9746	-3.5316	96.0509	-11.8190	4.6648	-0.0000	-14.0370	-0.9316	0.7107	89.6972	-8.8733	30.4512	-5.8005	81.9354	-29.6980	-20.4857	91.2108	-2.0820	28.2334	-5.8822	61.2012	-24.2115	-19.8113	
12.0160	-23.0187	3.0673	46.7869	0.0000	1.2500	-0.0000	64.5780	-0.6847	-7.4690	44.8295	-15.6285	8.3075	0.0000	81.3880	-0.3201	-2.7556	99.2457	-11.1141	4.6395	-0.0000	-13.9804	-0.8947	0.5447	89.5271	-9.2094	30.2628	-5.9538	81.7712	-29.7180	-20.7090	91.0632	-1.7799	28.3413	-5.8922	61.5133	-24.1855	-19.7687	
12.0330	-22.9924	3.0842	47.5317	0.0000	1.2500	-0.0000	60.6490	-1.2746	-8.3341	40.6789	-16.6911	8.2040	-0.0000	84.6138	0.4272	-2.2527	101.9049	-10.3024	4.6921	0.0000	-13.9075	-0.8504	0.3678	89.3255	-9.5686	29.9918	-6.1279	81.6533	-29.7371	-20.9469	90.8126	-1.4471	28.4799	-5.9219	61.7865	-24.1512	-19.7300	
12.0500	-22.9870	3.1411	48.2064	0.0000	1.2500	-0.0000	57.1400	-1.7651	-9.0285	37.3543	-17.3754	8.0317	-0.0000	87.6644	1.1819	-1.8616	103.8777	-9.5569	4.5949	0.0000	-13.8306	-0.8315	0.1945	89.0878	-9.9267	29.6513	-6.1933	81.5764	-29.7253	-21.1384	90.5157	-1.1105	28.5584	-5.9418	62.0939	-24.1242	-19.6658	
12.0660	-23.0010	3.2504	48.8037	0.0000	1.2500	-0.0000	54.0724	-2.2132	-9.4847	34.8907	-17.5975	7.7446	-0.0000	90.5808	1.9280	-1.5429	105.1100	-8.9479	4.2757	0.0000	-13.7473	-0.8468	0.0218	88.7577	-10.2976	29.2041	-6.0726	81.5486	-29.6627	-21.2576	90.1647	-0.7552	28.5374	-5.9401	62.4854	-24.1077	-19.5505	
12.0830	-23.0349	3.4005	49.3313	0.0000	1.2500	-0.0000	51.4286	-2.6370	-9.7384	33.2541	-17.4487	7.3708	0.0000	93.3269	2.6512	-1.3125	105.6533	-8.4006	3.8164	0.0000	-13.6602	-0.8873	-0.1470	88.3895	-10.6641	28.6864	-5.8432	81.5611	-29.5690	-21.3297	89.7677	-0.3980	28.4563	-5.9267	62.9118	-24.0987	-19.4097	
12.1000	-23.1013	3.5848	49.7138	0.0000	1.2500	-0.0000	49.5269	-2.9679	-9.8309	32.7955	-16.9938	6.9258	-0.0000	95.5997	3.2775	-1.0513	105.5147	-7.8697	3.2056	0.0000	-13.5880	-0.9579	-0.2875	88.1495	-10.9599	28.2248	-5.6085	81.5826	-29.4731	-21.3710	89.4074	-0.1110	28.3426	-5.9051	63.2973	-24.1032	-19.2916	
12.1160	-23.2304	3.8290	49.8968	0.0000	1.2500	-0.0000	48.5209	-3.1813	-9.7393	33.7156	-16.1132	6.2769	-0.0000	97.3774	3.7688	-0.6052	104.6928	-7.3215	2.2682	0.0000	-13.5292	-1.0817	-0.3888	88.1209	-11.1728	27.8518	-5.3692	81.6146	-29.3717	-21.3811	89.0768	0.0860	28.1633	-5.8545	63.6699	-24.1328	-19.2113	
12.1330	-23.3931	4.1075	49.9355	0.0000	1.2500	-0.0000	48.2616	-3.3335	-9.4534	35.8181	-14.9351	5.5345	-0.0000	98.6790	4.1568	-0.0782	103.1902	-6.7721	1.1454	0.0000	-13.4845	-1.2348	-0.4616	88.2254	-11.3200	27.5375	-5.1247	81.6557	-29.2678	-21.3604	88.7853	0.2151	27.9514	-5.7956	64.0016	-24.1759	-19.1537	
12.1500	-23.5118	4.3358	49.9169	0.0000	1.2500	-0.0000	48.6139	-3.4645	-9.0285	38.8596	-13.8843	5.0821	0.0000	99.2634	4.4736	0.2685	101.0206	-6.2727	0.3079	-0.0000	-13.4761	-1.3513	-0.5147	88.3904	-11.3830	27.3162	-4.9767	81.6716	-29.1999	-21.3268	88.6414	0.2687	27.8326	-5.7954	64.1313	-24.2032	-19.1212	
12.1660	-23.5712	4.5019	49.8718	0.0000	1.2500	-0.0000	49.6383	-3.5846	-8.5063	42.9541	-13.0295	5.1137	0.0000	99.0161	4.7567	0.3993	98.1072	-5.8482	-0.0394	-0.0000	-13.5207	-1.4131	-0.5542	88.6318	-11.3243	27.2212	-5.0003	81.6272	-29.1993	-21.2923	88.7549	0.2123	27.8883	-5.9102	63.9340	-24.2034	-19.1309	
12.1830	-23.5872	4.6175	49.7685	0.0000	1.2500	-0.0000	51.2753	-3.6565	-7.8400	48.0014	-12.2851	5.4335	0.0000	98.0535	4.9674	0.3583	94.5278	-5.4931	-0.0763	-0.0000	-13.6015	-1.4384	-0.5742	88.9353	-11.1824	27.2199	-5.1203	81.5576	-29.2346	-21.2449	89.0158	0.0806	28.0372	-6.0854	63.5344	-24.1880	-19.1657	
12.2000	-23.5284	4.6339	49.6006	0.0000	1.2500	-0.0000	53.2085	-3.6445	-6.9610	53.4293	-11.8391	5.8614	0.0000	96.4854	5.0282	-0.0074	90.5317	-5.2293	0.1060	0.0000	-13.6898	-1.4163	-0.5646	89.1835	-11.0514	27.2474	-5.2122	81.5347	-29.2495	-21.1658	89.2015	-0.0292	28.1611	-6.2219	63.1456	-24.1621	-19.1777	
12.2160	-23.3503	4.5074	49.3749	0.0000	1.2500	-0.0000	55.3852	-3.5099	-5.7783	59.2356	-11.8934	6.4230	0.0000	94.2535	4.9509	-0.8141	86.1090	-4.9881	0.6047	0.0000	-13.7843	-1.3226	-0.5178	89.3291	-10.9771	27.2994	-5.2383	81.5740	-29.2209	-21.0382	89.2194	-0.0641	28.2375	-6.2777	62.8043	-24.1201	-19.1369	
